<svg width="250" height="250" viewBox="0 0 250 250" fill="none" xmlns="http://www.w3.org/2000/svg">
<rect width="250" height="250" fill="white"/>
<path d="M138.8 93H103C100.8 93 99 94.8 99 97V153C99 155.2 100.8 157 103 157H147C149.2 157 151 155.2 151 153V104.1L138.8 93ZM140 99.5L143.8 103H140V99.5ZM103 153V97H136V107H147V153H103Z" fill="black"/>
<path d="M135.3 127.5L132.7 124.5L127 129.5V111H123V129.5L117.3 124.5L114.7 127.5L125 136.7L135.3 127.5Z" fill="black"/>
<path d="M141 141H109V145H141V141Z" fill="black"/>
</svg>
